<svg width="356" height="444" viewBox="0 0 356 444" fill="none" xmlns="http://www.w3.org/2000/svg">
<g opacity="0.06">
<path d="M-57.7503 306.36L48.014 306.36L48.014 413.715C48.014 429.888 61.1099 443.067 77.3302 443.067L193.066 443.067C209.22 443.067 222.382 429.955 222.382 413.715L222.382 356.011L177.244 356.011L177.244 397.875L93.2181 397.875L93.2181 180.102L130.312 180.102L130.312 134.91L48.0805 134.91L48.0805 261.168L-41.8623 261.168L-41.8623 180.102L3.14228 180.102L3.14228 134.91L-57.6837 134.91C-73.8376 134.91 -87 148.022 -87 164.262L-87 277.008C-87 293.181 -73.9041 306.36 -57.7503 306.36Z" fill="#247CFF"/>
<path d="M93.1516 45.2584L177.178 45.2584L177.178 261.168L139.419 261.168L139.419 306.36L222.316 306.36L222.316 180.168L310.862 180.168L310.862 261.168L266.589 261.168L266.589 306.36L326.684 306.36C342.904 306.36 356 293.181 356 277.008L356 164.261C356 148.088 342.904 134.91 326.684 134.91L222.316 134.91L222.316 29.3515C222.316 13.1782 209.22 4.82032e-05 192.999 4.67852e-05L77.2637 3.66672e-05C61.1098 3.5255e-05 47.9475 13.1117 47.9475 29.3514L47.9475 90.051L93.0851 90.051L93.0851 45.2584L93.1516 45.2584Z" fill="#247CFF"/>
</g>
</svg>
